<svg id="Layer_1" data-name="Layer 1" xmlns="http://www.w3.org/2000/svg" viewBox="0 0 252.54 101.83"><defs><style>.cls-1{fill:#46166b;}</style></defs><title>ama-logo</title><g id="AMA_Wire_" data-name="AMA Wire®"><g id="g28"><g id="g30"><path id="path32" class="cls-1" d="M293.92,202.43l-5.11-11.56a27.48,27.48,0,0,0-4.89,4l5.56,10.89A20.74,20.74,0,0,1,293.92,202.43Z" transform="translate(-72.47 -145.29)"/><path id="path34" class="cls-1" d="M279.25,185.53L275.47,178a57.93,57.93,0,0,1,5.78-5.11l3.56,8A25.23,25.23,0,0,0,279.25,185.53Z" transform="translate(-72.47 -145.29)"/><path id="path36" class="cls-1" d="M269.46,166.41l-10.89-21.12h10.67l6.45,15.12v0.22C275.91,160.85,272.58,163.07,269.46,166.41Z" transform="translate(-72.47 -145.29)"/><path id="path38" class="cls-1" d="M301.26,228.22l-7.56-14.67a21.74,21.74,0,0,1,3.78-2.89l6,13.79C303.26,224.44,302.15,226.22,301.26,228.22Z" transform="translate(-72.47 -145.29)"/><path id="path40" class="cls-1" d="M304.15,234.22l6.67,12.9H313l-6.89-16.23A10.58,10.58,0,0,0,304.15,234.22Z" transform="translate(-72.47 -145.29)"/></g><path id="path42" class="cls-1" d="M319,222.44h0a21.9,21.9,0,0,1-7.56,3.34L311,226s-1.11.44-4,4h0.22c7.56-.44,13.79-2,16.23-4,0.22-.22.22,0,0.22-0.22a4.44,4.44,0,0,0-4.67-3.34h0Z" transform="translate(-72.47 -145.29)"/><path id="path44" class="cls-1" d="M323.49,187.09c-2.89,3.78-13.56,6.45-26.24,6.89H291l-1.56-3.78,2.22-1.33h4c10.67-.44,17.56-3.11,20.9-6.23C316.6,182.42,321.71,183.53,323.49,187.09Z" transform="translate(-72.47 -145.29)"/><path id="path46" class="cls-1" d="M277.69,187.09a38.64,38.64,0,0,1-7.11-2.22l-0.44-.22a12.87,12.87,0,0,0-1.78,4.89l0.44,0.22a22.3,22.3,0,0,0,5.11,2A43,43,0,0,1,277.69,187.09Z" transform="translate(-72.47 -145.29)"/><path id="path48" class="cls-1" d="M300.81,229.33l-1.56-2.89h-0.44c-5.11-.44-9.56-1.33-12.23-2.67l-0.22-.22a5,5,0,0,0-.44,3.34h0.22c3.11,1.56,8.45,2.67,14.67,2.45h0Z" transform="translate(-72.47 -145.29)"/><path id="path50" class="cls-1" d="M298.14,210.21l1.33,3.11h2c11.12,0,19.79-2.22,22.23-5.34a8.17,8.17,0,0,0-6.23-3.56c-2.89,2.45-9.12,4.45-17.56,4.45C300.15,209.1,299.48,209.32,298.14,210.21Z" transform="translate(-72.47 -145.29)"/><path id="path52" class="cls-1" d="M287.25,207.76a27.42,27.42,0,0,1-9.78-3.56l-0.22-.22a10.68,10.68,0,0,0-.89,4.45l0.22,0.22a27.64,27.64,0,0,0,7.56,3.11A31.53,31.53,0,0,1,287.25,207.76Z" transform="translate(-72.47 -145.29)"/><path id="path54" class="cls-1" d="M275.69,206.65c0.89-7.34,9.12-16,20.68-21.34,12.23-5.56,23.79-5.11,27.35.44l0.22,0.44a13.43,13.43,0,0,0,.67-7.11c-2.22-8.23-15.79-9.56-30.24-2.89s-24.24,18.68-22,26.9a8,8,0,0,0,3.34,4.67v-1.11Z" transform="translate(-72.47 -145.29)"/><path id="path56" class="cls-1" d="M324.16,207.1l0.22,0.22a9.35,9.35,0,0,0,.22-6c-2-6.67-13.34-7.34-25.12-1.56s-19.57,16-17.56,22.9a7,7,0,0,0,2.89,3.78v-0.67c0.67-6,7.11-13.79,16.68-18.45,9.78-4.89,19.34-4.89,22.68-.22h0Z" transform="translate(-72.47 -145.29)"/><path id="path58" class="cls-1" d="M324.16,224.66h0a9.83,9.83,0,0,0,.44-4.45c-1.11-5.34-7.11-6.23-13.79-1.78-6.67,4.22-11.12,12-10,17.34a4.13,4.13,0,0,0,1.56,2.89v-0.44c0.44-4.67,4.22-10.45,9.34-14C317.27,220.66,322.6,220.88,324.16,224.66Z" transform="translate(-72.47 -145.29)"/><g id="g60"><g id="g62"><path id="path64" class="cls-1" d="M311.93,155.51a9.35,9.35,0,0,1-.44-1.11,2.75,2.75,0,0,0-.44-0.67c-0.67-1.11-3.56-1.11-6.23-1.33-1.33,0-4-.89-5.11-0.89a11.81,11.81,0,0,0-3.11.22,37.07,37.07,0,0,0-4.45,1.78l-0.67.22c-19.12,7.11-30.91,21.57-28,30.46a9.77,9.77,0,0,0,4.45,5.11h0.22c1.11-8,11.78-18.9,26.9-24.68l0.44-.22c1.56-.44,1.33,0,2.89,0,2,0,2-.22,5.11-1.33l6.67-2.45a4.1,4.1,0,0,0,2-1.56C312.6,158.18,312.15,156.85,311.93,155.51Zm-13.12-.22a2.19,2.19,0,0,1-2.67-.67V154.4c1.33-1.11,3.11-1.11,3.56-1.33h0c0.22,1.33-.22,2-0.89,2.22h0Z" transform="translate(-72.47 -145.29)"/></g></g><path id="path66" class="cls-1" d="M98.93,171.08h12l26.24,54.25H126.05l-5.56-12.45H89.37l-5.78,12.45H72.47Zm17.34,32.68-11.34-24.24L93.59,203.76h22.68Z" transform="translate(-72.47 -145.29)"/><path id="path68" class="cls-1" d="M151.4,184.2h0l-0.22,41.13h-9.34V171.08h14.23L173,211.32l17.12-40.24h13.79v54.25h-9.34V184.2h-0.22l-17.12,41.13h-8.45Z" transform="translate(-72.47 -145.29)"/><path id="path70" class="cls-1" d="M235.22,171.08h12l26.24,54.25H262.35l-5.56-12.45H225.66l-5.78,12.45H208.76Zm17.34,32.68-11.34-24.24-11.34,24.24h22.68Z" transform="translate(-72.47 -145.29)"/></g></g></svg>